<?xml version="1.0" standalone="no"?>
<svg width="1024" height="1024" version="1.1"
     xmlns="http://www.w3.org/2000/svg">
  <desc>Four separate rectangles
  </desc>
  <path vector-effect="none" fill="#808000" d="M704,96 L736,96 L736,128 L704,128 L704,96"/>
  <path vector-effect="none" fill="#808000" d="M736,96 L768,96 L768,128 L736,128 L736,96"/>
  <path vector-effect="none" fill="#808000" d="M608,128 L640,128 L640,160 L608,160 L608,128"/>
  <path vector-effect="none" fill="#808000" d="M640,128 L672,128 L672,160 L640,160 L640,128"/>
  <path vector-effect="none" fill="#808000" d="M672,128 L704,128 L704,160 L672,160 L672,128"/>
  <path vector-effect="none" fill="#808000" d="M704,128 L736,128 L736,160 L704,160 L704,128"/>
  <path vector-effect="none" fill="#808000" d="M736,128 L768,128 L768,160 L736,160 L736,128"/>
  <path vector-effect="none" fill="#808000" d="M768,128 L800,128 L800,160 L768,160 L768,128"/>
  <path vector-effect="none" fill="#808000" d="M576,160 L608,160 L608,192 L576,192 L576,160"/>
  <path vector-effect="none" fill="#808000" d="M608,160 L640,160 L640,192 L608,192 L608,160"/>
  <path vector-effect="none" fill="#808000" d="M640,160 L672,160 L672,192 L640,192 L640,160"/>
  <path vector-effect="none" fill="#808000" d="M672,160 L704,160 L704,192 L672,192 L672,160"/>
  <path vector-effect="none" fill="#808000" d="M704,160 L736,160 L736,192 L704,192 L704,160"/>
  <path vector-effect="none" fill="#808000" d="M736,160 L768,160 L768,192 L736,192 L736,160"/>
  <path vector-effect="none" fill="#808000" d="M768,160 L800,160 L800,192 L768,192 L768,160"/>
  <path vector-effect="none" fill="#808000" d="M544,192 L576,192 L576,224 L544,224 L544,192"/>
  <path vector-effect="none" fill="#808000" d="M576,192 L608,192 L608,224 L576,224 L576,192"/>
  <path vector-effect="none" fill="#808000" d="M608,192 L640,192 L640,224 L608,224 L608,192"/>
  <path vector-effect="none" fill="#808000" d="M640,192 L672,192 L672,224 L640,224 L640,192"/>
  <path vector-effect="none" fill="#808000" d="M672,192 L704,192 L704,224 L672,224 L672,192"/>
  <path vector-effect="none" fill="#808000" d="M704,192 L736,192 L736,224 L704,224 L704,192"/>
  <path vector-effect="none" fill="#808000" d="M736,192 L768,192 L768,224 L736,224 L736,192"/>
  <path vector-effect="none" fill="#808000" d="M768,192 L800,192 L800,224 L768,224 L768,192"/>
  <path vector-effect="none" fill="#808000" d="M800,192 L832,192 L832,224 L800,224 L800,192"/>
  <path vector-effect="none" fill="#808000" d="M544,224 L576,224 L576,256 L544,256 L544,224"/>
  <path vector-effect="none" fill="#808000" d="M576,224 L608,224 L608,256 L576,256 L576,224"/>
  <path vector-effect="none" fill="#808000" d="M608,224 L640,224 L640,256 L608,256 L608,224"/>
  <path vector-effect="none" fill="#808000" d="M640,224 L672,224 L672,256 L640,256 L640,224"/>
  <path vector-effect="none" fill="#808000" d="M672,224 L704,224 L704,256 L672,256 L672,224"/>
  <path vector-effect="none" fill="#808000" d="M704,224 L736,224 L736,256 L704,256 L704,224"/>
  <path vector-effect="none" fill="#808000" d="M736,224 L768,224 L768,256 L736,256 L736,224"/>
  <path vector-effect="none" fill="#808000" d="M768,224 L800,224 L800,256 L768,256 L768,224"/>
  <path vector-effect="none" fill="#808000" d="M800,224 L832,224 L832,256 L800,256 L800,224"/>
  <path vector-effect="none" fill="#808000" d="M512,256 L544,256 L544,288 L512,288 L512,256"/>
  <path vector-effect="none" fill="#808000" d="M544,256 L576,256 L576,288 L544,288 L544,256"/>
  <path vector-effect="none" fill="#808000" d="M576,256 L608,256 L608,288 L576,288 L576,256"/>
  <path vector-effect="none" fill="#808000" d="M608,256 L640,256 L640,288 L608,288 L608,256"/>
  <path vector-effect="none" fill="#808000" d="M640,256 L672,256 L672,288 L640,288 L640,256"/>
  <path vector-effect="none" fill="#808000" d="M672,256 L704,256 L704,288 L672,288 L672,256"/>
  <path vector-effect="none" fill="#808000" d="M704,256 L736,256 L736,288 L704,288 L704,256"/>
  <path vector-effect="none" fill="#808000" d="M736,256 L768,256 L768,288 L736,288 L736,256"/>
  <path vector-effect="none" fill="#808000" d="M768,256 L800,256 L800,288 L768,288 L768,256"/>
  <path vector-effect="none" fill="#808000" d="M800,256 L832,256 L832,288 L800,288 L800,256"/>
  <path vector-effect="none" fill="#808000" d="M512,288 L544,288 L544,320 L512,320 L512,288"/>
  <path vector-effect="none" fill="#808000" d="M544,288 L576,288 L576,320 L544,320 L544,288"/>
  <path vector-effect="none" fill="#808000" d="M576,288 L608,288 L608,320 L576,320 L576,288"/>
  <path vector-effect="none" fill="#808000" d="M608,288 L640,288 L640,320 L608,320 L608,288"/>
  <path vector-effect="none" fill="#808000" d="M640,288 L672,288 L672,320 L640,320 L640,288"/>
  <path vector-effect="none" fill="#808000" d="M672,288 L704,288 L704,320 L672,320 L672,288"/>
  <path vector-effect="none" fill="#808000" d="M704,288 L736,288 L736,320 L704,320 L704,288"/>
  <path vector-effect="none" fill="#808000" d="M736,288 L768,288 L768,320 L736,320 L736,288"/>
  <path vector-effect="none" fill="#808000" d="M768,288 L800,288 L800,320 L768,320 L768,288"/>
  <path vector-effect="none" fill="#808000" d="M800,288 L832,288 L832,320 L800,320 L800,288"/>
  <path vector-effect="none" fill="#808000" d="M512,320 L544,320 L544,352 L512,352 L512,320"/>
  <path vector-effect="none" fill="#808000" d="M544,320 L576,320 L576,352 L544,352 L544,320"/>
  <path vector-effect="none" fill="#808000" d="M576,320 L608,320 L608,352 L576,352 L576,320"/>
  <path vector-effect="none" fill="#808000" d="M608,320 L640,320 L640,352 L608,352 L608,320"/>
  <path vector-effect="none" fill="#808000" d="M640,320 L672,320 L672,352 L640,352 L640,320"/>
  <path vector-effect="none" fill="#808000" d="M672,320 L704,320 L704,352 L672,352 L672,320"/>
  <path vector-effect="none" fill="#808000" d="M704,320 L736,320 L736,352 L704,352 L704,320"/>
  <path vector-effect="none" fill="#808000" d="M736,320 L768,320 L768,352 L736,352 L736,320"/>
  <path vector-effect="none" fill="#808000" d="M768,320 L800,320 L800,352 L768,352 L768,320"/>
  <path vector-effect="none" fill="#808000" d="M800,320 L832,320 L832,352 L800,352 L800,320"/>
  <path vector-effect="none" fill="#808000" d="M832,320 L864,320 L864,352 L832,352 L832,320"/>
  <path vector-effect="none" fill="#808000" d="M512,352 L544,352 L544,384 L512,384 L512,352"/>
  <path vector-effect="none" fill="#808000" d="M544,352 L576,352 L576,384 L544,384 L544,352"/>
  <path vector-effect="none" fill="#808000" d="M576,352 L608,352 L608,384 L576,384 L576,352"/>
  <path vector-effect="none" fill="#808000" d="M608,352 L640,352 L640,384 L608,384 L608,352"/>
  <path vector-effect="none" fill="#808000" d="M640,352 L672,352 L672,384 L640,384 L640,352"/>
  <path vector-effect="none" fill="#808000" d="M672,352 L704,352 L704,384 L672,384 L672,352"/>
  <path vector-effect="none" fill="#808000" d="M704,352 L736,352 L736,384 L704,384 L704,352"/>
  <path vector-effect="none" fill="#808000" d="M736,352 L768,352 L768,384 L736,384 L736,352"/>
  <path vector-effect="none" fill="#808000" d="M768,352 L800,352 L800,384 L768,384 L768,352"/>
  <path vector-effect="none" fill="#808000" d="M800,352 L832,352 L832,384 L800,384 L800,352"/>
  <path vector-effect="none" fill="#808000" d="M832,352 L864,352 L864,384 L832,384 L832,352"/>
  <path vector-effect="none" fill="#808000" d="M512,384 L544,384 L544,416 L512,416 L512,384"/>
  <path vector-effect="none" fill="#808000" d="M544,384 L576,384 L576,416 L544,416 L544,384"/>
  <path vector-effect="none" fill="#808000" d="M576,384 L608,384 L608,416 L576,416 L576,384"/>
  <path vector-effect="none" fill="#808000" d="M608,384 L640,384 L640,416 L608,416 L608,384"/>
  <path vector-effect="none" fill="#808000" d="M640,384 L672,384 L672,416 L640,416 L640,384"/>
  <path vector-effect="none" fill="#808000" d="M672,384 L704,384 L704,416 L672,416 L672,384"/>
  <path vector-effect="none" fill="#808000" d="M704,384 L736,384 L736,416 L704,416 L704,384"/>
  <path vector-effect="none" fill="#808000" d="M736,384 L768,384 L768,416 L736,416 L736,384"/>
  <path vector-effect="none" fill="#808000" d="M768,384 L800,384 L800,416 L768,416 L768,384"/>
  <path vector-effect="none" fill="#808000" d="M512,416 L544,416 L544,448 L512,448 L512,416"/>
  <path vector-effect="none" fill="#808000" d="M544,416 L576,416 L576,448 L544,448 L544,416"/>
  <path vector-effect="none" fill="#808000" d="M576,416 L608,416 L608,448 L576,448 L576,416"/>
  <path vector-effect="none" fill="#808000" d="M608,416 L640,416 L640,448 L608,448 L608,416"/>
  <path vector-effect="none" fill="#808000" d="M640,416 L672,416 L672,448 L640,448 L640,416"/>
  <path vector-effect="none" fill="#808000" d="M672,416 L704,416 L704,448 L672,448 L672,416"/>
  <path vector-effect="none" fill="#808000" d="M704,416 L736,416 L736,448 L704,448 L704,416"/>
  <path vector-effect="none" fill="#808000" d="M736,416 L768,416 L768,448 L736,448 L736,416"/>
  <path vector-effect="none" fill="#808000" d="M768,416 L800,416 L800,448 L768,448 L768,416"/>
  <path vector-effect="none" fill="#808000" d="M512,448 L544,448 L544,480 L512,480 L512,448"/>
  <path vector-effect="none" fill="#808000" d="M544,448 L576,448 L576,480 L544,480 L544,448"/>
  <path vector-effect="none" fill="#808000" d="M576,448 L608,448 L608,480 L576,480 L576,448"/>
  <path vector-effect="none" fill="#808000" d="M608,448 L640,448 L640,480 L608,480 L608,448"/>
  <path vector-effect="none" fill="#808000" d="M640,448 L672,448 L672,480 L640,480 L640,448"/>
  <path vector-effect="none" fill="#808000" d="M672,448 L704,448 L704,480 L672,480 L672,448"/>
  <path vector-effect="none" fill="#808000" d="M704,448 L736,448 L736,480 L704,480 L704,448"/>
  <path vector-effect="none" fill="#808000" d="M736,448 L768,448 L768,480 L736,480 L736,448"/>
  <path vector-effect="none" fill="#808000" d="M768,448 L800,448 L800,480 L768,480 L768,448"/>
  <path vector-effect="none" fill="#808000" d="M352,480 L384,480 L384,512 L352,512 L352,480"/>
  <path vector-effect="none" fill="#808000" d="M384,480 L416,480 L416,512 L384,512 L384,480"/>
  <path vector-effect="none" fill="#808000" d="M416,480 L448,480 L448,512 L416,512 L416,480"/>
  <path vector-effect="none" fill="#808000" d="M448,480 L480,480 L480,512 L448,512 L448,480"/>
  <path vector-effect="none" fill="#808000" d="M480,480 L512,480 L512,512 L480,512 L480,480"/>
  <path vector-effect="none" fill="#808000" d="M512,480 L544,480 L544,512 L512,512 L512,480"/>
  <path vector-effect="none" fill="#808000" d="M544,480 L576,480 L576,512 L544,512 L544,480"/>
  <path vector-effect="none" fill="#808000" d="M576,480 L608,480 L608,512 L576,512 L576,480"/>
  <path vector-effect="none" fill="#808000" d="M608,480 L640,480 L640,512 L608,512 L608,480"/>
  <path vector-effect="none" fill="#808000" d="M640,480 L672,480 L672,512 L640,512 L640,480"/>
  <path vector-effect="none" fill="#808000" d="M672,480 L704,480 L704,512 L672,512 L672,480"/>
  <path vector-effect="none" fill="#808000" d="M704,480 L736,480 L736,512 L704,512 L704,480"/>
  <path vector-effect="none" fill="#808000" d="M736,480 L768,480 L768,512 L736,512 L736,480"/>
  <path vector-effect="none" fill="#808000" d="M768,480 L800,480 L800,512 L768,512 L768,480"/>
  <path vector-effect="none" fill="#808000" d="M288,512 L320,512 L320,544 L288,544 L288,512"/>
  <path vector-effect="none" fill="#808000" d="M320,512 L352,512 L352,544 L320,544 L320,512"/>
  <path vector-effect="none" fill="#808000" d="M352,512 L384,512 L384,544 L352,544 L352,512"/>
  <path vector-effect="none" fill="#808000" d="M384,512 L416,512 L416,544 L384,544 L384,512"/>
  <path vector-effect="none" fill="#808000" d="M416,512 L448,512 L448,544 L416,544 L416,512"/>
  <path vector-effect="none" fill="#808000" d="M448,512 L480,512 L480,544 L448,544 L448,512"/>
  <path vector-effect="none" fill="#808000" d="M480,512 L512,512 L512,544 L480,544 L480,512"/>
  <path vector-effect="none" fill="#808000" d="M512,512 L544,512 L544,544 L512,544 L512,512"/>
  <path vector-effect="none" fill="#808000" d="M544,512 L576,512 L576,544 L544,544 L544,512"/>
  <path vector-effect="none" fill="#808000" d="M576,512 L608,512 L608,544 L576,544 L576,512"/>
  <path vector-effect="none" fill="#808000" d="M608,512 L640,512 L640,544 L608,544 L608,512"/>
  <path vector-effect="none" fill="#808000" d="M640,512 L672,512 L672,544 L640,544 L640,512"/>
  <path vector-effect="none" fill="#808000" d="M672,512 L704,512 L704,544 L672,544 L672,512"/>
  <path vector-effect="none" fill="#808000" d="M704,512 L736,512 L736,544 L704,544 L704,512"/>
  <path vector-effect="none" fill="#808000" d="M736,512 L768,512 L768,544 L736,544 L736,512"/>
  <path vector-effect="none" fill="#808000" d="M768,512 L800,512 L800,544 L768,544 L768,512"/>
  <path vector-effect="none" fill="#808000" d="M256,544 L288,544 L288,576 L256,576 L256,544"/>
  <path vector-effect="none" fill="#808000" d="M288,544 L320,544 L320,576 L288,576 L288,544"/>
  <path vector-effect="none" fill="#808000" d="M320,544 L352,544 L352,576 L320,576 L320,544"/>
  <path vector-effect="none" fill="#808000" d="M352,544 L384,544 L384,576 L352,576 L352,544"/>
  <path vector-effect="none" fill="#808000" d="M384,544 L416,544 L416,576 L384,576 L384,544"/>
  <path vector-effect="none" fill="#808000" d="M416,544 L448,544 L448,576 L416,576 L416,544"/>
  <path vector-effect="none" fill="#808000" d="M448,544 L480,544 L480,576 L448,576 L448,544"/>
  <path vector-effect="none" fill="#808000" d="M480,544 L512,544 L512,576 L480,576 L480,544"/>
  <path vector-effect="none" fill="#808000" d="M512,544 L544,544 L544,576 L512,576 L512,544"/>
  <path vector-effect="none" fill="#808000" d="M544,544 L576,544 L576,576 L544,576 L544,544"/>
  <path vector-effect="none" fill="#808000" d="M576,544 L608,544 L608,576 L576,576 L576,544"/>
  <path vector-effect="none" fill="#808000" d="M608,544 L640,544 L640,576 L608,576 L608,544"/>
  <path vector-effect="none" fill="#808000" d="M640,544 L672,544 L672,576 L640,576 L640,544"/>
  <path vector-effect="none" fill="#808000" d="M672,544 L704,544 L704,576 L672,576 L672,544"/>
  <path vector-effect="none" fill="#808000" d="M704,544 L736,544 L736,576 L704,576 L704,544"/>
  <path vector-effect="none" fill="#808000" d="M736,544 L768,544 L768,576 L736,576 L736,544"/>
  <path vector-effect="none" fill="#808000" d="M768,544 L800,544 L800,576 L768,576 L768,544"/>
  <path vector-effect="none" fill="#808000" d="M256,576 L288,576 L288,608 L256,608 L256,576"/>
  <path vector-effect="none" fill="#808000" d="M288,576 L320,576 L320,608 L288,608 L288,576"/>
  <path vector-effect="none" fill="#808000" d="M320,576 L352,576 L352,608 L320,608 L320,576"/>
  <path vector-effect="none" fill="#808000" d="M352,576 L384,576 L384,608 L352,608 L352,576"/>
  <path vector-effect="none" fill="#808000" d="M384,576 L416,576 L416,608 L384,608 L384,576"/>
  <path vector-effect="none" fill="#808000" d="M416,576 L448,576 L448,608 L416,608 L416,576"/>
  <path vector-effect="none" fill="#808000" d="M448,576 L480,576 L480,608 L448,608 L448,576"/>
  <path vector-effect="none" fill="#808000" d="M480,576 L512,576 L512,608 L480,608 L480,576"/>
  <path vector-effect="none" fill="#808000" d="M512,576 L544,576 L544,608 L512,608 L512,576"/>
  <path vector-effect="none" fill="#808000" d="M544,576 L576,576 L576,608 L544,608 L544,576"/>
  <path vector-effect="none" fill="#808000" d="M576,576 L608,576 L608,608 L576,608 L576,576"/>
  <path vector-effect="none" fill="#808000" d="M608,576 L640,576 L640,608 L608,608 L608,576"/>
  <path vector-effect="none" fill="#808000" d="M640,576 L672,576 L672,608 L640,608 L640,576"/>
  <path vector-effect="none" fill="#808000" d="M672,576 L704,576 L704,608 L672,608 L672,576"/>
  <path vector-effect="none" fill="#808000" d="M704,576 L736,576 L736,608 L704,608 L704,576"/>
  <path vector-effect="none" fill="#808000" d="M736,576 L768,576 L768,608 L736,608 L736,576"/>
  <path vector-effect="none" fill="#808000" d="M768,576 L800,576 L800,608 L768,608 L768,576"/>
  <path vector-effect="none" fill="#808000" d="M256,608 L288,608 L288,640 L256,640 L256,608"/>
  <path vector-effect="none" fill="#808000" d="M288,608 L320,608 L320,640 L288,640 L288,608"/>
  <path vector-effect="none" fill="#808000" d="M320,608 L352,608 L352,640 L320,640 L320,608"/>
  <path vector-effect="none" fill="#808000" d="M352,608 L384,608 L384,640 L352,640 L352,608"/>
  <path vector-effect="none" fill="#808000" d="M384,608 L416,608 L416,640 L384,640 L384,608"/>
  <path vector-effect="none" fill="#808000" d="M416,608 L448,608 L448,640 L416,640 L416,608"/>
  <path vector-effect="none" fill="#808000" d="M448,608 L480,608 L480,640 L448,640 L448,608"/>
  <path vector-effect="none" fill="#808000" d="M480,608 L512,608 L512,640 L480,640 L480,608"/>
  <path vector-effect="none" fill="#808000" d="M512,608 L544,608 L544,640 L512,640 L512,608"/>
  <path vector-effect="none" fill="#808000" d="M544,608 L576,608 L576,640 L544,640 L544,608"/>
  <path vector-effect="none" fill="#808000" d="M576,608 L608,608 L608,640 L576,640 L576,608"/>
  <path vector-effect="none" fill="#808000" d="M608,608 L640,608 L640,640 L608,640 L608,608"/>
  <path vector-effect="none" fill="#808000" d="M640,608 L672,608 L672,640 L640,640 L640,608"/>
  <path vector-effect="none" fill="#808000" d="M672,608 L704,608 L704,640 L672,640 L672,608"/>
  <path vector-effect="none" fill="#808000" d="M704,608 L736,608 L736,640 L704,640 L704,608"/>
  <path vector-effect="none" fill="#808000" d="M736,608 L768,608 L768,640 L736,640 L736,608"/>
  <path vector-effect="none" fill="#808000" d="M768,608 L800,608 L800,640 L768,640 L768,608"/>
  <path vector-effect="none" fill="#808000" d="M256,640 L288,640 L288,672 L256,672 L256,640"/>
  <path vector-effect="none" fill="#808000" d="M288,640 L320,640 L320,672 L288,672 L288,640"/>
  <path vector-effect="none" fill="#808000" d="M320,640 L352,640 L352,672 L320,672 L320,640"/>
  <path vector-effect="none" fill="#808000" d="M352,640 L384,640 L384,672 L352,672 L352,640"/>
  <path vector-effect="none" fill="#808000" d="M384,640 L416,640 L416,672 L384,672 L384,640"/>
  <path vector-effect="none" fill="#808000" d="M416,640 L448,640 L448,672 L416,672 L416,640"/>
  <path vector-effect="none" fill="#808000" d="M448,640 L480,640 L480,672 L448,672 L448,640"/>
  <path vector-effect="none" fill="#808000" d="M480,640 L512,640 L512,672 L480,672 L480,640"/>
  <path vector-effect="none" fill="#808000" d="M512,640 L544,640 L544,672 L512,672 L512,640"/>
  <path vector-effect="none" fill="#808000" d="M544,640 L576,640 L576,672 L544,672 L544,640"/>
  <path vector-effect="none" fill="#808000" d="M576,640 L608,640 L608,672 L576,672 L576,640"/>
  <path vector-effect="none" fill="#808000" d="M608,640 L640,640 L640,672 L608,672 L608,640"/>
  <path vector-effect="none" fill="#808000" d="M640,640 L672,640 L672,672 L640,672 L640,640"/>
  <path vector-effect="none" fill="#808000" d="M672,640 L704,640 L704,672 L672,672 L672,640"/>
  <path vector-effect="none" fill="#808000" d="M704,640 L736,640 L736,672 L704,672 L704,640"/>
  <path vector-effect="none" fill="#808000" d="M736,640 L768,640 L768,672 L736,672 L736,640"/>
  <path vector-effect="none" fill="#808000" d="M768,640 L800,640 L800,672 L768,672 L768,640"/>
  <path vector-effect="none" fill="#808000" d="M256,672 L288,672 L288,704 L256,704 L256,672"/>
  <path vector-effect="none" fill="#808000" d="M288,672 L320,672 L320,704 L288,704 L288,672"/>
  <path vector-effect="none" fill="#808000" d="M384,672 L416,672 L416,704 L384,704 L384,672"/>
  <path vector-effect="none" fill="#808000" d="M416,672 L448,672 L448,704 L416,704 L416,672"/>
  <path vector-effect="none" fill="#808000" d="M448,672 L480,672 L480,704 L448,704 L448,672"/>
  <path vector-effect="none" fill="#808000" d="M480,672 L512,672 L512,704 L480,704 L480,672"/>
  <path vector-effect="none" fill="#808000" d="M512,672 L544,672 L544,704 L512,704 L512,672"/>
  <path vector-effect="none" fill="#808000" d="M544,672 L576,672 L576,704 L544,704 L544,672"/>
  <path vector-effect="none" fill="#808000" d="M576,672 L608,672 L608,704 L576,704 L576,672"/>
  <path vector-effect="none" fill="#808000" d="M608,672 L640,672 L640,704 L608,704 L608,672"/>
  <path vector-effect="none" fill="#808000" d="M704,672 L736,672 L736,704 L704,704 L704,672"/>
  <path vector-effect="none" fill="#808000" d="M736,672 L768,672 L768,704 L736,704 L736,672"/>
  <path vector-effect="none" fill="#808000" d="M768,672 L800,672 L800,704 L768,704 L768,672"/>
  <path vector-effect="none" fill="#808000" d="M64,704 L96,704 L96,736 L64,736 L64,704"/>
  <path vector-effect="none" fill="#808000" d="M224,704 L256,704 L256,736 L224,736 L224,704"/>
  <path vector-effect="none" fill="#808000" d="M256,704 L288,704 L288,736 L256,736 L256,704"/>
  <path vector-effect="none" fill="#808000" d="M288,704 L320,704 L320,736 L288,736 L288,704"/>
  <path vector-effect="none" fill="#808000" d="M384,704 L416,704 L416,736 L384,736 L384,704"/>
  <path vector-effect="none" fill="#808000" d="M416,704 L448,704 L448,736 L416,736 L416,704"/>
  <path vector-effect="none" fill="#808000" d="M448,704 L480,704 L480,736 L448,736 L448,704"/>
  <path vector-effect="none" fill="#808000" d="M480,704 L512,704 L512,736 L480,736 L480,704"/>
  <path vector-effect="none" fill="#808000" d="M512,704 L544,704 L544,736 L512,736 L512,704"/>
  <path vector-effect="none" fill="#808000" d="M704,704 L736,704 L736,736 L704,736 L704,704"/>
  <path vector-effect="none" fill="#808000" d="M736,704 L768,704 L768,736 L736,736 L736,704"/>
  <path vector-effect="none" fill="#808000" d="M768,704 L800,704 L800,736 L768,736 L768,704"/>
  <path vector-effect="none" fill="#808000" d="M256,736 L288,736 L288,768 L256,768 L256,736"/>
  <path vector-effect="none" fill="#808000" d="M384,736 L416,736 L416,768 L384,768 L384,736"/>
  <path vector-effect="none" fill="#808000" d="M448,736 L480,736 L480,768 L448,768 L448,736"/>
  <path vector-effect="none" fill="#808000" d="M480,736 L512,736 L512,768 L480,768 L480,736"/>
  <path vector-effect="none" fill="#808000" d="M512,736 L544,736 L544,768 L512,768 L512,736"/>
  <path vector-effect="none" fill="#808000" d="M736,736 L768,736 L768,768 L736,768 L736,736"/>
  <path vector-effect="none" fill="#808000" d="M768,736 L800,736 L800,768 L768,768 L768,736"/>
  <path vector-effect="none" fill="#808000" d="M224,768 L256,768 L256,800 L224,800 L224,768"/>
  <path vector-effect="none" fill="#808000" d="M384,768 L416,768 L416,800 L384,800 L384,768"/>
  <path vector-effect="none" fill="#808000" d="M480,768 L512,768 L512,800 L480,800 L480,768"/>
  <path vector-effect="none" fill="#808000" d="M512,768 L544,768 L544,800 L512,800 L512,768"/>
  <path vector-effect="none" fill="#808000" d="M736,768 L768,768 L768,800 L736,800 L736,768"/>
  <path vector-effect="none" fill="#808000" d="M768,768 L800,768 L800,800 L768,800 L768,768"/>
  <path vector-effect="none" fill="#808000" d="M224,800 L256,800 L256,832 L224,832 L224,800"/>
  <path vector-effect="none" fill="#808000" d="M384,800 L416,800 L416,832 L384,832 L384,800"/>
  <path vector-effect="none" fill="#808000" d="M480,800 L512,800 L512,832 L480,832 L480,800"/>
  <path vector-effect="none" fill="#808000" d="M512,800 L544,800 L544,832 L512,832 L512,800"/>
  <path vector-effect="none" fill="#808000" d="M736,800 L768,800 L768,832 L736,832 L736,800"/>
  <path vector-effect="none" fill="#808000" d="M768,800 L800,800 L800,832 L768,832 L768,800"/>
  <path vector-effect="none" fill="#808000" d="M224,832 L256,832 L256,864 L224,864 L224,832"/>
  <path vector-effect="none" fill="#808000" d="M480,832 L512,832 L512,864 L480,864 L480,832"/>
  <path vector-effect="none" fill="#808000" d="M512,832 L544,832 L544,864 L512,864 L512,832"/>
  <path vector-effect="none" fill="#808000" d="M768,832 L800,832 L800,864 L768,864 L768,832"/>
  <path vector-effect="none" fill="#808000" d="M800,832 L832,832 L832,864 L800,864 L800,832"/>
  <path vector-effect="none" fill="#808000" d="M224,864 L256,864 L256,896 L224,896 L224,864"/>
  <path vector-effect="none" fill="#808000" d="M416,864 L448,864 L448,896 L416,896 L416,864"/>
  <path vector-effect="none" fill="#808000" d="M448,864 L480,864 L480,896 L448,896 L448,864"/>
  <path vector-effect="none" fill="#808000" d="M480,864 L512,864 L512,896 L480,896 L480,864"/>
  <path vector-effect="none" fill="#808000" d="M512,864 L544,864 L544,896 L512,896 L512,864"/>
  <path vector-effect="none" fill="#808000" d="M768,864 L800,864 L800,896 L768,896 L768,864"/>
  <path vector-effect="none" fill="#808000" d="M800,864 L832,864 L832,896 L800,896 L800,864"/>
  <path vector-effect="none" fill="#808000" d="M224,896 L256,896 L256,928 L224,928 L224,896"/>
  <path vector-effect="none" fill="#808000" d="M256,896 L288,896 L288,928 L256,928 L256,896"/>
  <path vector-effect="none" fill="#808000" d="M448,896 L480,896 L480,928 L448,928 L448,896"/>
  <path vector-effect="none" fill="#808000" d="M480,896 L512,896 L512,928 L480,928 L480,896"/>
  <path vector-effect="none" fill="#808000" d="M512,896 L544,896 L544,928 L512,928 L512,896"/>
  <path vector-effect="none" fill="#808000" d="M800,896 L832,896 L832,928 L800,928 L800,896"/>
  <path vector-effect="none" fill="#808000" d="M832,896 L864,896 L864,928 L832,928 L832,896"/>
  <path vector-effect="none" fill="#808000" d="M864,896 L896,896 L896,928 L864,928 L864,896"/>
  <!-- Show outline of viewport using 'rect' element -->
  <rect x=".10cm" y=".10cm" width="1024" height="1024"
        fill="none" stroke="blue" stroke-width=".10cm" />
</svg>
